<?xml version="1.0" encoding="UTF-8"?>
<!DOCTYPE svg PUBLIC "-//W3C//DTD SVG 1.1//EN" "http://www.w3.org/Graphics/SVG/1.1/DTD/svg11.dtd">
<!-- Creator: CorelDRAW 2020 (64-Bit) -->
<svg xmlns="http://www.w3.org/2000/svg" xml:space="preserve" width="210mm" height="210mm" version="1.1" style="shape-rendering:geometricPrecision; text-rendering:geometricPrecision; image-rendering:optimizeQuality; fill-rule:evenodd; clip-rule:evenodd"
viewBox="0 0 21000 21000"
 xmlns:xlink="http://www.w3.org/1999/xlink"
 xmlns:xodm="http://www.corel.com/coreldraw/odm/2003">
 <defs>
  <style type="text/css">
   <![CDATA[
    .fil0 {fill:#51CF4D}
    .fil2 {fill:#2B2A29;fill-rule:nonzero}
    .fil1 {fill:black;fill-rule:nonzero}
   ]]>
  </style>
 </defs>
 <g id="Слой_x0020_1">
  <metadata id="CorelCorpID_0Corel-Layer"/>
  <circle class="fil0" cx="10500" cy="10500" r="6601"/>
  <path class="fil1" d="M18703.13 10500c0,-4523.2 -3679.93,-8203.13 -8203.13,-8203.13 -4523.2,0 -8203.13,3679.93 -8203.13,8203.13 0,330.42 22.31,675.28 65.95,1025.06l651 -81.38c-40.35,-322.87 -60.7,-640.49 -60.7,-943.68 0,-4161.28 3385.6,-7546.88 7546.88,-7546.88 4161.61,0 7546.88,3385.59 7546.88,7546.88 0,303.19 -20.34,620.81 -61.03,943.69l651 81.38c44.29,-349.79 66.28,-694.65 66.28,-1025.07zm1836.51 -1001.11c-143.39,-189.98 -291.7,-386.53 -315.33,-539.11 -25.59,-162.42 56.44,-400.97 135.84,-631.31 115.5,-334.03 245.77,-712.69 128.63,-1073.63 -119.11,-367.83 -451.17,-599.81 -744.19,-804.56 -196.88,-137.48 -399.98,-279.56 -471.84,-420 -73.5,-143.72 -69.23,-394.41 -65.3,-636.56 5.91,-355.03 12.47,-756.98 -212.3,-1066.08 -225.75,-310.41 -611.63,-428.2 -951.89,-531.89 -230.67,-70.22 -469.55,-143.39 -582.09,-255.94 -112.88,-112.88 -185.72,-351.75 -255.94,-582.42 -103.68,-340.27 -221.48,-726.14 -532.21,-951.89 -308.77,-224.77 -711.05,-218.53 -1065.75,-212.3 -242.16,4.59 -493.17,8.2 -636.56,-65.3 -140.44,-71.53 -282.52,-274.97 -420,-471.84 -204.42,-293.02 -436.41,-624.75 -804.23,-744.19 -361.27,-117.14 -740.58,13.13 -1074.94,127.97 -230.34,79.41 -469.55,161.11 -631.31,136.17 -152.59,-23.95 -349.14,-172.26 -539.45,-315.32 -286.12,-215.91 -610.97,-460.69 -1000.78,-460.69 -389.81,0 -714.66,244.78 -1001.11,460.69 -189.98,143.39 -386.53,291.38 -539.11,315.33 -161.77,25.92 -400.64,-56.77 -631.31,-136.17 -334.36,-115.17 -713.02,-245.44 -1073.63,-128.63 -367.83,119.44 -599.81,451.17 -804.56,744.19 -137.48,196.55 -279.56,399.98 -420,471.52 -143.72,73.5 -394.73,68.91 -636.56,65.3 -355.03,-6.89 -756.98,-12.8 -1066.08,212.3 -310.41,225.75 -428.2,611.63 -531.89,951.89 -70.22,231 -143.39,469.55 -255.94,582.42 -112.88,112.88 -351.75,185.72 -582.75,256.27 -340.27,103.69 -725.81,221.48 -951.89,531.89 -224.77,308.77 -218.2,711.05 -212.3,1066.08 3.94,242.48 7.88,492.84 -65.3,636.89 -71.53,140.11 -274.97,282.19 -471.52,419.67 -293.02,204.75 -624.75,436.73 -744.52,804.56 -117.14,361.27 13.45,739.92 128.63,1074.28 79.41,230.67 161.77,468.89 136.17,631.31 -23.95,152.58 -171.94,349.13 -315.33,539.11 -216.22,286.44 -461,611.29 -461,1001.1 0,389.81 244.78,714.66 460.69,1001.11 143.39,189.98 291.38,386.86 315.33,539.44l648.38 -102.05c-49.22,-314.67 -247.73,-577.83 -439.69,-832.45 -161.44,-214.27 -328.46,-435.75 -328.46,-606.05 0,-170.3 167.02,-391.78 328.45,-606.05 191.95,-254.63 390.14,-517.78 439.69,-832.45 50.86,-323.53 -58.41,-640.5 -164.06,-946.97 -85.64,-248.39 -174.23,-505.64 -124.69,-657.56 51.52,-158.48 277.59,-316.31 496.13,-469.22 262.5,-183.42 534.19,-373.08 680.2,-659.2 147.66,-289.41 142.41,-623.11 136.83,-945.98 -4.27,-264.47 -8.53,-537.47 86.95,-669.05 96.8,-132.89 358.97,-212.95 612.94,-290.39 307.78,-94.17 626.39,-191.3 855.09,-420 228.7,-228.7 325.83,-546.98 419.67,-854.77 77.44,-253.64 157.17,-516.14 290.39,-612.94 131.58,-95.81 404.91,-91.55 669.05,-86.95 322.88,5.25 656.25,10.83 945.98,-136.83 286.13,-146.02 475.78,-417.38 659.53,-680.2 152.58,-218.53 310.73,-444.28 469.22,-495.8 151.59,-49.88 408.84,39.38 657.23,124.69 306.8,105.66 623.44,214.59 946.97,164.06 314.34,-49.22 577.83,-247.73 832.45,-439.69 213.95,-161.43 435.43,-328.45 605.73,-328.45 170.3,0 391.78,167.02 606.05,328.45 254.63,191.95 517.78,390.14 832.45,439.69 322.88,49.88 640.5,-58.41 946.97,-164.06 248.72,-85.64 505.31,-174.56 657.89,-124.69 158.16,51.52 316.31,277.27 469.22,495.8 183.42,262.5 373.41,534.19 659.2,680.2 289.41,147.66 624.42,143.06 945.98,136.83 264.47,-3.94 537.8,-8.86 669.38,86.95 132.89,96.8 212.63,358.97 290.39,612.94 93.84,307.78 190.97,626.39 419.67,855.09 228.38,228.7 546.98,325.83 854.77,419.67 253.31,77.44 515.81,157.5 612.61,290.39 95.81,131.58 91.22,404.58 86.95,669.05 -5.25,322.88 -10.5,656.58 137.16,945.98 146.02,286.13 417.38,475.78 679.88,659.2 218.53,152.91 444.28,310.73 496.13,469.55 49.22,151.92 -39.05,408.84 -124.69,657.23 -105.66,306.47 -214.59,623.44 -164.06,946.97 49.55,314.34 248.06,577.83 439.69,832.13 161.11,214.59 328.13,436.08 328.13,606.38 0,170.3 -167.02,391.78 -328.45,606.38 -191.63,254.3 -389.81,517.45 -439.69,832.13l648.7 102.05c23.63,-152.58 171.94,-349.13 315.33,-539.44 215.56,-286.46 460.34,-611.31 460.34,-1001.12 0,-389.81 -244.78,-714.66 -460.36,-1001.11zm-2688.33 7078.31c-307.78,93.84 -626.39,190.97 -854.77,419.67 -228.7,228.38 -325.83,546.98 -420,854.77 -77.11,253.64 -157.17,515.81 -290.39,612.61 -131.25,95.48 -406.22,90.89 -668.72,86.95 -322.88,-5.25 -656.25,-10.5 -946.31,137.16 -285.8,146.02 -475.45,417.38 -658.88,679.88 -152.91,218.53 -310.73,444.28 -469.55,496.13 -152.25,49.88 -408.84,-38.72 -657.56,-124.69 -306.47,-105.33 -623.77,-212.63 -946.97,-164.06 -314.67,49.55 -577.83,248.06 -832.13,439.69 -214.25,161.42 -435.73,328.44 -606.03,328.44 -170.3,0 -391.78,-167.02 -606.38,-328.45 -254.3,-191.63 -517.78,-389.81 -832.13,-439.69 -322.55,-48.56 -640.5,58.73 -946.97,164.06 -248.39,85.64 -504.98,174.56 -657.56,124.69 -158.48,-51.52 -316.64,-277.59 -469.22,-496.13 -183.75,-262.83 -373.41,-534.19 -659.2,-680.2 -289.41,-147.66 -623.44,-142.41 -945.66,-136.83 -264.47,3.28 -537.8,8.86 -669.38,-87.28 -132.89,-96.8 -212.95,-358.97 -290.39,-612.61 -94.17,-307.78 -191.3,-626.39 -420,-854.77 -228.7,-228.7 -546.98,-325.83 -855.09,-420 -253.64,-77.11 -516.14,-157.17 -612.61,-290.39l-530.57 386.54c225.75,310.08 611.63,427.88 951.56,531.56 231,70.55 469.88,143.39 582.75,256.27 112.88,112.88 185.72,351.42 256.27,582.42 103.69,340.27 221.48,725.81 531.89,951.56 308.77,225.42 711.05,217.88 1066.41,212.3 241.83,-2.63 492.84,-7.88 636.56,65.3 140.11,71.53 282.19,274.97 419.67,471.84 204.75,293.02 436.73,624.75 804.56,744.52 360.61,116.16 739.59,-13.13 1073.95,-128.63 230.67,-79.08 469.55,-163.73 631.31,-135.84 152.58,23.63 349.13,171.94 539.11,315.33 286.46,215.9 611.31,460.68 1001.12,460.68 389.81,0 714.66,-244.78 1001.11,-460.36 189.98,-143.39 386.86,-291.7 539.44,-315.33 160.13,-28.22 400.64,56.44 631.31,135.84 334.69,115.5 713.67,246.09 1073.63,128.63 367.83,-119.11 599.81,-451.5 804.56,-744.52 137.48,-196.55 279.89,-399.98 419.67,-471.52 143.72,-73.83 393.75,-69.89 636.56,-65.3 352.73,5.58 756.66,12.47 1066.08,-212.3 310.08,-225.75 427.88,-611.3 531.56,-951.56 70.55,-230.67 143.39,-469.88 256.27,-582.42 112.88,-112.88 351.42,-185.72 582.09,-255.94 340.27,-103.69 726.14,-221.81 951.89,-532.22l-530.58 -385.88c-96.14,132.58 -358.64,212.32 -612.28,290.08zm-2341.83 416.72l-401.3 -519.09c-1331.85,1028.34 -2924.9,1572.05 -4608.18,1572.05 -1682.95,0 -3276.33,-543.7 -4607.86,-1572.05l-401.3 519.09c1447.69,1118.25 3179.53,1709.21 5009.16,1709.21 1829.63,0 3561.8,-590.96 5009.48,-1709.21z"/>
  <path class="fil2" d="M5928.5 7741.08l0 2765.38 -697.25 0 0 679.53 2257.21 0 0 -679.53 -714.98 0 0 -3456.72 -1459.51 0 0 691.34 614.53 0zm3406.95 3444.91l0 -1667.38 1005.06 0 0 -565.06 -1634.96 0 0 2232.44 629.9 0zm3626.55 -1125.48c0,-787.37 -597.48,-1176.43 -1194.95,-1171.8 -588.22,4.63 -1171.8,398.32 -1171.8,1171.8 0,782.74 597.48,1171.8 1190.32,1171.8 588.22,0 1176.43,-389.06 1176.43,-1171.8zm-1722.96 0c0,-402.95 273.27,-602.11 546.53,-602.11 273.27,0 532.64,203.79 532.64,602.11 0,407.58 -273.27,611.37 -546.53,606.74 -268.64,0 -532.64,-203.79 -532.64,-606.74zm2528.86 1607.17l0 -481.69 1417.27 0 0 481.69 560.42 0 23.16 -981.9 -296.42 0 0 -1732.23 -1672.01 0 -176 1120.85c-55.58,342.74 -27.79,602.11 -393.69,611.38l-32.42 0c0,0 -9.26,0 -9.26,0l18.52 981.9 560.43 0zm1097.69 -981.9l-805.9 0c83.37,-64.85 125.05,-189.9 143.58,-305.69l27.79 -171.37 88 -722.53 546.53 0 0 1199.59z"/>
  <path class="fil2" d="M488.73 14926.12l0 -1270 765.53 0 0 -430.39 -1245.3 0 0 1700.39 479.77 0zm3032.72 -261.06c0,303.39 282.22,317.5 539.75,261.06l-3.53 -275.17c-162.28,10.59 -158.75,-74.08 -158.75,-218.72l0 -613.83c0,-490.36 -373.94,-635 -811.39,-635 -229.3,0 -458.61,42.33 -638.53,127l63.5 352.77c144.64,-81.13 310.45,-102.3 490.37,-102.3 169.33,0 423.33,35.28 423.33,243.42l0 116.41c-127,-81.14 -299.86,-109.36 -451.56,-109.36 -377.47,0 -677.33,197.56 -659.69,613.84 10.58,328.08 299.86,532.69 617.36,532.69 218.72,0 486.83,-81.14 589.14,-292.81zm-105.83 -349.25c-17.64,179.92 -222.25,261.06 -384.53,261.06 -112.89,0 -222.25,-59.97 -232.84,-183.44 -17.63,-165.81 109.37,-254 264.59,-264.59 123.47,0 254,31.75 352.78,98.78l0 88.19zm2309.52 -829.02c0,-324.56 -331.61,-321.03 -560.92,-271.64l3.53 328.08c179.92,-10.58 158.75,95.25 158.75,257.53l0 1996.72 493.89 0 0 -945.44c592.67,299.86 1206.5,-116.42 1206.5,-790.23 0,-462.14 -268.11,-885.47 -765.53,-885.47 -218.72,0 -440.97,98.78 -536.22,310.45zm81.14 511.52c3.52,-201.08 130.53,-384.52 352.78,-388.05 250.47,0 370.41,225.78 370.41,451.55 0,430.39 -373.94,589.14 -723.19,381l0 -444.5zm3537.19 666.75c0,303.39 282.22,317.5 539.75,261.06l-3.53 -275.17c-162.28,10.59 -158.75,-74.08 -158.75,-218.72l0 -613.83c0,-490.36 -373.94,-635 -811.39,-635 -229.3,0 -458.61,42.33 -638.53,127l63.5 352.77c144.64,-81.13 310.45,-102.3 490.37,-102.3 169.33,0 423.33,35.28 423.33,243.42l0 116.41c-127,-81.14 -299.86,-109.36 -451.56,-109.36 -377.47,0 -677.33,197.56 -659.69,613.84 10.58,328.08 299.86,532.69 617.36,532.69 218.72,0 486.83,-81.14 589.14,-292.81zm-105.83 -349.25c-17.64,179.92 -222.25,261.06 -384.53,261.06 -112.89,0 -222.25,-59.97 -232.84,-183.44 -17.63,-165.81 109.37,-254 264.59,-264.59 123.47,0 254,31.75 352.78,98.78l0 88.19zm2990.38 -1090.08l0 606.78 -677.33 0 0 -606.78 -476.25 0 0 1700.39 476.25 0 0 -670.28 677.33 0 0 670.28 476.25 0 0 -1700.39 -476.25 0zm2634.08 1693.33l0 -1262.94 500.95 0 0 -430.39 -1481.67 0 0 430.39 500.94 0 0 1262.94 479.78 0zm2828.11 -871.36l0 878.42 476.25 0 0 -1707.45 -148.16 0 -1001.89 862.55 0 -855.49 -476.25 0 0 1700.39 127 0 1023.05 -878.42zm1678.05 825.5l0 52.92 525.64 0 363.36 -515.06 236.37 0 0 515.06c165.8,0 328.08,0 497.41,0l0 -1700.39c-232.83,0 -702.03,0 -931.33,0 -388.06,3.53 -613.84,282.22 -613.84,589.14 0,215.19 137.59,412.75 324.56,500.94l-402.17 557.39zm836.09 -843.14c-162.28,0 -261.06,-88.19 -261.06,-208.14 0,-119.94 95.25,-222.25 261.06,-222.25 98.78,0 194.03,0 289.28,0l0 430.39 -289.28 0z"/>
  <g id="_3025158960496">
  </g>
  <g id="_3025158961696">
  </g>
  <g id="_3025158964864">
  </g>
  <g id="_3025158964048">
  </g>
  <g id="_3025158965536">
  </g>
  <g id="_3025158964768">
  </g>
  <g id="_3025158964432">
  </g>
  <g id="_3025158964240">
  </g>
  <g id="_3025158964528">
  </g>
  <g id="_3025158963616">
  </g>
  <g id="_3025158967024">
  </g>
  <g id="_3025158968560">
  </g>
  <g id="_3025158968992">
  </g>
  <g id="_3025158967120">
  </g>
  <g id="_3025158968704">
  </g>
  <g id="_3025158967360">
  </g>
  <g id="_3025158968608">
  </g>
  <g id="_3025158969376">
  </g>
  <g id="_3025158971632">
  </g>
  <g id="_3025158972448">
  </g>
  <g id="_3025158971344">
  </g>
  <g id="_3025158971680">
  </g>
  <g id="_3025158970912">
  </g>
  <g id="_3025158971920">
  </g>
  <g id="_3025158970144">
  </g>
  <g id="_3025158970576">
  </g>
  <g id="_3025158975136">
  </g>
  <g id="_3025158972736">
  </g>
  <g id="_3025158973216">
  </g>
  <g id="_3025158973120">
  </g>
  <g id="_3025158974416">
  </g>
  <g id="_3025158975328">
  </g>
  <g id="_3025158973936">
  </g>
  <g id="_3025158976576">
  </g>
  <g id="_3025158977152">
  </g>
  <g id="_3025158975952">
  </g>
  <g id="_3025158977248">
  </g>
  <g id="_3025158977872">
  </g>
  <g id="_3025158977536">
  </g>
  <g id="_3025158976144">
  </g>
  <g id="_3025158978592">
  </g>
  <g id="_3025158980560">
  </g>
  <g id="_3025158980848">
  </g>
  <g id="_3025158978928">
  </g>
  <g id="_3025158981760">
  </g>
  <g id="_3025158980992">
  </g>
  <g id="_3025158980656">
  </g>
  <g id="_3025158980128">
  </g>
  <g id="_3025158981664">
  </g>
  <g id="_3025158983536">
  </g>
  <g id="_3025158983344">
  </g>
  <g id="_3025158983056">
  </g>
  <g id="_3025158984064">
  </g>
  <g id="_3025158984544">
  </g>
  <g id="_3025158984928">
  </g>
  <g id="_3025158982480">
  </g>
  <g id="_3025158986320">
  </g>
  <g id="_3025158987760">
  </g>
  <g id="_3025158987520">
  </g>
  <g id="_3025158986896">
  </g>
  <g id="_3025158986368">
  </g>
  <g id="_3025158986800">
  </g>
  <g id="_3025158987616">
  </g>
  <g id="_3025158985072">
  </g>
  <g id="_3025158990256">
  </g>
  <g id="_3025158988576">
  </g>
  <g id="_3025158989728">
  </g>
  <g id="_3025158990064">
  </g>
  <g id="_3025158989584">
  </g>
  <g id="_3025158989104">
  </g>
  <g id="_3025158991024">
  </g>
  <g id="_3025158991552">
  </g>
  <g id="_3025158992272">
  </g>
  <g id="_3025158992320">
  </g>
  <g id="_3025158991744">
  </g>
 </g>
</svg>
