<?xml version="1.0" encoding="UTF-8"?>
<!DOCTYPE svg PUBLIC "-//W3C//DTD SVG 1.1//EN" "http://www.w3.org/Graphics/SVG/1.1/DTD/svg11.dtd">
<!-- Creator: CorelDRAW 2020 (64-Bit) -->
<svg xmlns="http://www.w3.org/2000/svg" xml:space="preserve" width="135.467mm" height="135.467mm" version="1.1" style="shape-rendering:geometricPrecision; text-rendering:geometricPrecision; image-rendering:optimizeQuality; fill-rule:evenodd; clip-rule:evenodd"
viewBox="0 0 649.57 649.57"
 xmlns:xlink="http://www.w3.org/1999/xlink"
 xmlns:xodm="http://www.corel.com/coreldraw/odm/2003">
 <defs>
  <style type="text/css">
   <![CDATA[
    .fil0 {fill:#51CF4D}
    .fil1 {fill:black;fill-rule:nonzero}
   ]]>
  </style>
 </defs>
 <g id="Слой_x0020_1">
  <metadata id="CorelCorpID_0Corel-Layer"/>
  <polygon class="fil0" points="226.19,309.43 327.55,278.02 418.52,302.81 327.02,455.77 "/>
  <rect class="fil0" x="40.6" y="503.42" width="556.35" height="49.98"/>
  <path class="fil1" d="M608.98 595.44l-40.6 0 0 40.6c0,7.47 -6.06,13.53 -13.53,13.53 -7.47,0 -13.53,-6.06 -13.53,-13.53l0 -40.6 -433.05 0 0 40.6c0,7.47 -6.06,13.53 -13.53,13.53 -7.47,0 -13.53,-6.06 -13.53,-13.53l0 -40.6 -40.6 0c-22.38,0 -40.6,-18.22 -40.6,-40.6l0 -54.13c0,-22.38 18.22,-40.6 40.6,-40.6l568.38 0c22.38,0 40.6,18.22 40.6,40.6l0 54.13c0,22.38 -18.22,40.6 -40.6,40.6l0 -0zm0 -351.85c-7.47,0 -13.53,-6.06 -13.53,-13.53l0 -27.07c0,-22.38 -18.22,-40.6 -40.6,-40.6l-81.2 -0c-22.38,0 -40.6,18.22 -40.6,40.6l0 27.07c0,7.47 -6.06,13.53 -13.53,13.53 -7.47,0 -13.53,-6.06 -13.53,-13.53l0 -27.07c0,-37.3 30.34,-67.66 67.66,-67.66l81.2 0c37.32,0 67.66,30.37 67.66,67.66l0 27.07c0,7.47 -6.06,13.53 -13.53,13.53l0 0zm-94.73 -135.33c-29.85,0 -54.13,-24.28 -54.13,-54.13 0,-29.85 24.28,-54.13 54.13,-54.13 29.85,0 54.13,24.28 54.13,54.13 0,29.85 -24.28,54.13 -54.13,54.13zm0 -81.2c-14.94,0 -27.07,12.15 -27.07,27.07 0,14.91 12.13,27.07 27.07,27.07 14.94,0 27.07,-12.15 27.07,-27.07 0,-14.91 -12.13,-27.07 -27.07,-27.07zm-284.19 216.52c-7.47,0 -13.53,-6.06 -13.53,-13.53l0 -27.07c0,-22.38 -18.22,-40.6 -40.6,-40.6l-81.2 -0c-22.38,0 -40.6,18.22 -40.6,40.6l0 27.07c0,7.47 -6.06,13.53 -13.53,13.53 -7.47,0 -13.53,-6.06 -13.53,-13.53l0 -27.07c0,-37.3 30.34,-67.66 67.66,-67.66l81.2 0c37.32,0 67.66,30.37 67.66,67.66l0 27.07c0,7.47 -6.06,13.53 -13.53,13.53l-0 0zm-94.73 -135.33c-29.85,0 -54.13,-24.28 -54.13,-54.13 0,-29.85 24.28,-54.13 54.13,-54.13 29.85,0 54.13,24.28 54.13,54.13 0,29.85 -24.28,54.13 -54.13,54.13zm0 -81.2c-14.94,0 -27.07,12.15 -27.07,27.07 0,14.91 12.13,27.07 27.07,27.07 14.94,0 27.07,-12.15 27.07,-27.07 0,-14.91 -12.13,-27.07 -27.07,-27.07zm311.25 514.25l-27.07 0c-7.47,0 -13.53,-6.06 -13.53,-13.53 0,-7.47 6.06,-13.53 13.53,-13.53l27.07 -0c7.47,0 13.53,6.06 13.53,13.53 0,7.47 -6.06,13.53 -13.53,13.53l0 0zm108.26 0l-27.07 0c-7.47,0 -13.53,-6.06 -13.53,-13.53 0,-7.47 6.06,-13.53 13.53,-13.53l27.07 -0c7.47,0 13.53,6.06 13.53,13.53 0,7.47 -6.06,13.53 -13.53,13.53l0 0zm-324.79 0l-27.07 0c-7.47,0 -13.53,-6.06 -13.53,-13.53 0,-7.47 6.06,-13.53 13.53,-13.53l27.07 -0c7.47,0 13.53,6.06 13.53,13.53 0,7.47 -6.06,13.53 -13.53,13.53l0 0zm-108.26 0l-27.07 0c-7.47,0 -13.53,-6.06 -13.53,-13.53 0,-7.47 6.06,-13.53 13.53,-13.53l27.07 -0c7.47,0 13.53,6.06 13.53,13.53 0,7.47 -6.06,13.53 -13.53,13.53l0 0zm330.47 -181.61c-4.01,0 -7.98,-1.79 -10.66,-5.17 -28.28,-36.11 -70.88,-56.81 -116.81,-56.81 -45.93,0 -88.53,20.71 -116.81,56.81 -4.63,5.85 -13.1,6.9 -19,2.3 -5.87,-4.6 -6.9,-13.13 -2.3,-19 33.45,-42.71 83.8,-67.18 138.12,-67.18 54.32,0 104.66,24.47 138.14,67.15 4.6,5.87 3.57,14.4 -2.3,19 -2.49,1.95 -5.44,2.9 -8.36,2.9l0 -0zm-58.19 58.19c-4.6,0 -9.09,-2.35 -11.64,-6.6 -12.1,-20.27 -33.64,-32.37 -57.65,-32.37 -24.01,0 -45.55,12.1 -57.65,32.37 -3.87,6.41 -12.21,8.47 -18.57,4.68 -6.41,-3.84 -8.53,-12.13 -4.71,-18.57 17.08,-28.53 47.31,-45.55 80.93,-45.55 33.62,0 63.85,17.02 80.9,45.58 3.84,6.41 1.71,14.72 -4.71,18.57 -2.17,1.27 -4.55,1.89 -6.9,1.89zm-353.48 69.29c-7.44,0 -13.53,6.06 -13.53,13.53l0 54.13c0,7.47 6.09,13.53 13.53,13.53l54.13 0 460.12 0 54.13 0c7.44,0 13.53,-6.06 13.53,-13.53l0 -54.13c0,-7.47 -6.09,-13.53 -13.53,-13.53l-568.38 0z"/>
 </g>
</svg>
