<?xml version="1.0" encoding="UTF-8"?>
<!DOCTYPE svg PUBLIC "-//W3C//DTD SVG 1.1//EN" "http://www.w3.org/Graphics/SVG/1.1/DTD/svg11.dtd">
<!-- Creator: CorelDRAW 2020 (64-Bit) -->
<svg xmlns="http://www.w3.org/2000/svg" xml:space="preserve" width="135.467mm" height="124.178mm" version="1.1" style="shape-rendering:geometricPrecision; text-rendering:geometricPrecision; image-rendering:optimizeQuality; fill-rule:evenodd; clip-rule:evenodd"
viewBox="0 0 773.02 708.6"
 xmlns:xlink="http://www.w3.org/1999/xlink"
 xmlns:xodm="http://www.corel.com/coreldraw/odm/2003">
 <defs>
  <style type="text/css">
   <![CDATA[
    .fil0 {fill:#51CF4D}
    .fil1 {fill:black;fill-rule:nonzero}
   ]]>
  </style>
 </defs>
 <g id="Слой_x0020_1">
  <metadata id="CorelCorpID_0Corel-Layer"/>
  <rect class="fil0" x="70.57" y="425.3" width="628.08" height="142.52"/>
  <path class="fil1" d="M692.5 644.18l-16.1 0 0 48.31c0,8.89 -7.22,16.1 -16.1,16.1 -8.89,0 -16.1,-7.22 -16.1,-16.1l0 -48.31 -515.35 0 0 48.31c0,8.89 -7.22,16.1 -16.1,16.1 -8.89,0 -16.1,-7.22 -16.1,-16.1l0 -48.31 -16.1 0c-44.42,0 -80.52,-36.14 -80.52,-80.52l0 -128.84c0,-44.38 36.11,-80.52 80.52,-80.52l467.03 0 0 -144.94c0,-8.89 7.22,-16.1 16.1,-16.1 8.89,0 16.1,7.22 16.1,16.1l0 144.94 112.73 0c44.42,0 80.52,36.14 80.52,80.52l0 128.84c0,44.38 -36.11,80.52 -80.52,80.52zm22.87 -538.21c-4.77,0 -9.5,-2.13 -12.69,-6.15 -33.66,-42.97 -84.36,-67.61 -139.01,-67.61 -54.66,0 -105.36,24.64 -139.01,67.61 -5.51,6.99 -15.62,8.18 -22.61,2.74 -6.99,-5.48 -8.21,-15.62 -2.74,-22.61 39.81,-50.83 99.72,-79.94 164.36,-79.94 64.64,0 124.55,29.12 164.4,79.91 5.48,6.99 4.25,17.13 -2.74,22.61 -2.96,2.32 -6.47,3.45 -9.95,3.45l0 -0zm-69.25 69.25c-5.48,0 -10.82,-2.8 -13.85,-7.86 -14.4,-24.12 -40.04,-38.52 -68.61,-38.52 -28.57,0 -54.21,14.4 -68.61,38.52 -4.61,7.63 -14.56,10.08 -22.1,5.57 -7.63,-4.57 -10.15,-14.43 -5.6,-22.1 20.32,-33.95 56.3,-54.21 96.31,-54.21 40,0 75.98,20.26 96.27,54.24 4.57,7.63 2.03,17.52 -5.6,22.1 -2.58,1.51 -5.41,2.25 -8.21,2.25zm-340.13 372.34c-26.64,0 -48.31,-21.68 -48.31,-48.31 0,-26.64 21.68,-48.31 48.31,-48.31 26.64,0 48.31,21.68 48.31,48.31 0,26.64 -21.68,48.31 -48.31,48.31zm0 -64.42c-8.86,0 -16.1,7.22 -16.1,16.1 0,8.89 7.25,16.1 16.1,16.1 8.86,0 16.1,-7.22 16.1,-16.1 0,-8.89 -7.25,-16.1 -16.1,-16.1zm-161.05 64.42c-26.64,0 -48.31,-21.68 -48.31,-48.31 0,-26.64 21.68,-48.31 48.31,-48.31 26.64,0 48.31,21.68 48.31,48.31 0,26.64 -21.68,48.31 -48.31,48.31zm0 -64.42c-8.86,0 -16.1,7.22 -16.1,16.1 0,8.89 7.25,16.1 16.1,16.1 8.86,0 16.1,-7.22 16.1,-16.1 0,-8.89 -7.25,-16.1 -16.1,-16.1zm483.14 64.42c-26.64,0 -48.31,-21.68 -48.31,-48.31 0,-26.64 21.68,-48.31 48.31,-48.31 26.64,0 48.31,21.68 48.31,48.31 0,26.64 -21.68,48.31 -48.31,48.31zm0 -64.42c-8.86,0 -16.1,7.22 -16.1,16.1 0,8.89 7.25,16.1 16.1,16.1 8.86,0 16.1,-7.22 16.1,-16.1 0,-8.89 -7.25,-16.1 -16.1,-16.1zm-547.55 -96.63c-26.64,0 -48.31,21.68 -48.31,48.31l0 128.84c0,26.64 21.68,48.31 48.31,48.31l32.21 0 547.56 0 32.21 0c26.64,0 48.31,-21.68 48.31,-48.31l0 -128.84c0,-26.64 -21.68,-48.31 -48.31,-48.31l-128.84 0 -483.14 0z"/>
 </g>
</svg>
