<?xml version="1.0" encoding="UTF-8"?>
<!DOCTYPE svg PUBLIC "-//W3C//DTD SVG 1.1//EN" "http://www.w3.org/Graphics/SVG/1.1/DTD/svg11.dtd">
<!-- Creator: CorelDRAW 2020 (64-Bit) -->
<svg xmlns="http://www.w3.org/2000/svg" xml:space="preserve" width="210mm" height="210mm" version="1.1" style="shape-rendering:geometricPrecision; text-rendering:geometricPrecision; image-rendering:optimizeQuality; fill-rule:evenodd; clip-rule:evenodd"
viewBox="0 0 3286.6 3286.6"
 xmlns:xlink="http://www.w3.org/1999/xlink"
 xmlns:xodm="http://www.corel.com/coreldraw/odm/2003">
 <defs>
  <style type="text/css">
   <![CDATA[
    .fil0 {fill:#51CF4D}
    .fil1 {fill:black;fill-rule:nonzero}
   ]]>
  </style>
 </defs>
 <g id="Слой_x0020_1">
  <metadata id="CorelCorpID_0Corel-Layer"/>
  <rect class="fil0" x="223.9" y="2659.62" width="2805.93" height="423.67"/>
  <rect class="fil0" x="197.4" y="937.74" width="1419.4" height="1430.37"/>
  <g id="_3025165480848">
   <path class="fil1" d="M3132.54 513.53c84.94,0 154.06,-69.12 154.06,-154.06l-0 -205.41c0,-84.94 -69.12,-154.06 -154.06,-154.06l-1027.06 0c-84.94,0 -154.06,69.12 -154.06,154.06l0 205.41c0,84.94 69.12,154.06 154.06,154.06l462.18 -0 0 154.06 -1437.88 -0 0 -462.18c0,-17.82 -9.24,-34.3 -24.34,-43.7 -15.15,-9.4 -34.05,-10.17 -49.97,-2.26l-79.75 39.9 -79.75 -39.85c-14.43,-7.24 -31.48,-7.24 -45.96,0l-79.7 39.85 -79.75 -39.85c-14.43,-7.24 -31.48,-7.24 -45.96,0l-79.7 39.85 -79.75 -39.9c-15.87,-7.86 -34.82,-7.09 -49.97,2.26 -15.1,9.4 -24.34,25.88 -24.34,43.7l0 462.18 -359.47 -0c-28.35,0 -51.35,23.01 -51.35,51.35l0 1848.71 0 462.18c0,141.58 115.18,256.77 256.77,256.77l2773.06 -0c141.58,0 256.77,-115.18 256.77,-256.77l0 -462.18 -0 -1848.71c0,-28.35 -23.01,-51.35 -51.35,-51.35l-564.88 0 0 -154.06 462.18 0zm-2002.77 462.18c28.3,0 51.35,23.06 51.35,51.35 0,28.3 -23.06,51.35 -51.35,51.35l0 -102.71zm-616.24 -687.2l28.4 14.17c14.43,7.24 31.48,7.24 45.96,0l79.7 -39.85 79.75 39.85c14.43,7.24 31.48,7.24 45.96,0l79.7 -39.85 79.75 39.85c14.43,7.24 31.48,7.24 45.96,0l28.35 -14.17 0 789.91 -513.53 0 0 -789.91zm-154.06 738.56c0,-28.3 23.06,-51.35 51.35,-51.35l0 102.71c-28.3,0 -51.35,-23.06 -51.35,-51.35zm2824.42 2002.77c0,84.94 -69.12,154.06 -154.06,154.06l-2773.06 -0c-84.94,0 -154.06,-69.12 -154.06,-154.06l0 -410.82 3081.18 0 0 410.82zm0 -513.53l-3081.18 0 0 -1746 308.12 0 0 102.71c-84.94,0 -154.06,69.12 -154.06,154.06 0,84.94 69.12,154.06 154.06,154.06l51.35 -0 616.24 0 51.35 0c84.94,0 154.06,-69.12 154.06,-154.06 0,-84.94 -69.12,-154.06 -154.06,-154.06l0 -102.71 2054.12 0 0 1746zm-1129.77 -2156.83l0 -205.41c0,-28.3 23.06,-51.35 51.35,-51.35l1027.06 0c28.3,0 51.35,23.06 51.35,51.35l0 205.41c0,28.3 -23.06,51.35 -51.35,51.35l-1027.06 -0c-28.3,0 -51.35,-23.06 -51.35,-51.35z"/>
   <path class="fil1" d="M1900.06 1386.53l1129.77 0c28.35,0 51.35,-23.01 51.35,-51.35l0 -410.82c0,-28.35 -23.01,-51.35 -51.35,-51.35l-1129.77 0c-28.35,0 -51.35,23.01 -51.35,51.35l0 410.82c0,28.35 23.01,51.35 51.35,51.35zm51.35 -410.82l1027.06 0 0 308.12 -1027.06 0 0 -308.12z"/>
   <path class="fil1" d="M513.53 1283.83l-256.77 0c-28.35,0 -51.35,23.01 -51.35,51.35l0 205.41c0,28.35 23.01,51.35 51.35,51.35l256.77 -0c28.35,0 51.35,-23.01 51.35,-51.35l0 -205.41c-0,-28.35 -23.01,-51.35 -51.35,-51.35zm-51.35 205.41l-154.06 0 0 -102.71 154.06 0 0 102.71z"/>
   <path class="fil1" d="M975.71 1283.83l-256.76 0c-28.35,0 -51.35,23.01 -51.35,51.35l0 205.41c0,28.35 23.01,51.35 51.35,51.35l256.76 -0c28.35,0 51.35,-23.01 51.35,-51.35l0 -205.41c0,-28.35 -23.01,-51.35 -51.35,-51.35zm-51.35 205.41l-154.06 0 0 -102.71 154.06 0 0 102.71z"/>
   <path class="fil1" d="M1129.77 1335.18l0 205.41c0,28.35 23.01,51.35 51.35,51.35l256.76 -0c28.35,0 51.35,-23.01 51.35,-51.35l0 -205.41c0,-28.35 -23.01,-51.35 -51.35,-51.35l-256.77 0c-28.35,0 -51.35,23.01 -51.35,51.35zm102.71 51.35l154.06 0 0 102.71 -154.06 0 0 -102.71z"/>
   <path class="fil1" d="M513.53 1694.65l-256.77 0c-28.35,0 -51.35,23.01 -51.35,51.35l0 205.41c0,28.35 23.01,51.35 51.35,51.35l256.77 -0c28.35,0 51.35,-23.01 51.35,-51.35l0 -205.41c-0,-28.35 -23.01,-51.35 -51.35,-51.35zm-51.35 205.41l-154.06 0 0 -102.71 154.06 0 0 102.71z"/>
   <path class="fil1" d="M975.71 1694.65l-256.76 0c-28.35,0 -51.35,23.01 -51.35,51.35l0 205.41c0,28.35 23.01,51.35 51.35,51.35l256.76 -0c28.35,0 51.35,-23.01 51.35,-51.35l0 -205.41c0,-28.35 -23.01,-51.35 -51.35,-51.35zm-51.35 205.41l-154.06 0 0 -102.71 154.06 0 0 102.71z"/>
   <path class="fil1" d="M1437.89 1694.65l-256.77 0c-28.35,0 -51.35,23.01 -51.35,51.35l0 205.41c0,28.35 23.01,51.35 51.35,51.35l256.77 -0c28.35,0 51.35,-23.01 51.35,-51.35l0 -205.41c-0,-28.35 -23.01,-51.35 -51.35,-51.35zm-51.35 205.41l-154.06 0 0 -102.71 154.06 0 0 102.71z"/>
   <path class="fil1" d="M513.53 2105.48l-256.77 0c-28.35,0 -51.35,23.01 -51.35,51.35l0 205.41c0,28.35 23.01,51.35 51.35,51.35l256.77 -0c28.35,0 51.35,-23.01 51.35,-51.35l0 -205.41c-0,-28.35 -23.01,-51.35 -51.35,-51.35zm-51.35 205.41l-154.06 0 0 -102.71 154.06 0 0 102.71z"/>
   <path class="fil1" d="M975.71 2105.48l-256.76 0c-28.35,0 -51.35,23.01 -51.35,51.35l0 205.41c0,28.35 23.01,51.35 51.35,51.35l256.76 -0c28.35,0 51.35,-23.01 51.35,-51.35l0 -205.41c0,-28.35 -23.01,-51.35 -51.35,-51.35zm-51.35 205.41l-154.06 0 0 -102.71 154.06 0 0 102.71z"/>
   <path class="fil1" d="M1437.89 2105.48l-256.77 0c-28.35,0 -51.35,23.01 -51.35,51.35l0 205.41c0,28.35 23.01,51.35 51.35,51.35l256.77 -0c28.35,0 51.35,-23.01 51.35,-51.35l0 -205.41c-0,-28.35 -23.01,-51.35 -51.35,-51.35zm-51.35 205.41l-154.06 0 0 -102.71 154.06 0 0 102.71z"/>
   <path class="fil1" d="M2156.83 1694.65l-205.41 0c-28.35,0 -51.35,23.01 -51.35,51.35l0 205.41c0,28.35 23.01,51.35 51.35,51.35l205.41 -0c28.35,0 51.35,-23.01 51.35,-51.35l0 -205.41c0,-28.35 -23.01,-51.35 -51.35,-51.35zm-51.35 205.41l-102.71 0 0 -102.71 102.71 0 0 102.71z"/>
   <path class="fil1" d="M2567.65 1694.65l-205.41 0c-28.35,0 -51.35,23.01 -51.35,51.35l0 205.41c0,28.35 23.01,51.35 51.35,51.35l205.41 -0c28.35,0 51.35,-23.01 51.35,-51.35l0 -205.41c0,-28.35 -23.01,-51.35 -51.35,-51.35zm-51.35 205.41l-102.71 0 0 -102.71 102.71 0 0 102.71z"/>
   <path class="fil1" d="M2978.48 1694.65l-205.41 0c-28.35,0 -51.35,23.01 -51.35,51.35l0 205.41c0,28.35 23.01,51.35 51.35,51.35l205.41 -0c28.35,0 51.35,-23.01 51.35,-51.35l0 -205.41c0,-28.35 -23.01,-51.35 -51.35,-51.35zm-51.35 205.41l-102.71 0 0 -102.71 102.71 0 0 102.71z"/>
   <path class="fil1" d="M2156.83 2105.48l-205.41 0c-28.35,0 -51.35,23.01 -51.35,51.35l0 205.41c0,28.35 23.01,51.35 51.35,51.35l205.41 -0c28.35,0 51.35,-23.01 51.35,-51.35l0 -205.41c0,-28.35 -23.01,-51.35 -51.35,-51.35zm-51.35 205.41l-102.71 0 0 -102.71 102.71 0 0 102.71z"/>
   <path class="fil1" d="M2567.65 2105.48l-205.41 0c-28.35,0 -51.35,23.01 -51.35,51.35l0 205.41c0,28.35 23.01,51.35 51.35,51.35l205.41 -0c28.35,0 51.35,-23.01 51.35,-51.35l0 -205.41c0,-28.35 -23.01,-51.35 -51.35,-51.35zm-51.35 205.41l-102.71 0 0 -102.71 102.71 0 0 102.71z"/>
   <path class="fil1" d="M2978.48 2105.48l-205.41 0c-28.35,0 -51.35,23.01 -51.35,51.35l0 205.41c0,28.35 23.01,51.35 51.35,51.35l205.41 -0c28.35,0 51.35,-23.01 51.35,-51.35l0 -205.41c0,-28.35 -23.01,-51.35 -51.35,-51.35zm-51.35 205.41l-102.71 0 0 -102.71 102.71 0 0 102.71z"/>
   <rect class="fil1" x="1900.06" y="1489.24" width="308.12" height="102.71"/>
   <rect class="fil1" x="2310.89" y="1489.24" width="308.12" height="102.71"/>
   <rect class="fil1" x="2721.71" y="1489.24" width="308.12" height="102.71"/>
   <path class="fil1" d="M1643.3 3029.83c84.94,0 154.06,-69.12 154.06,-154.06 0,-84.94 -69.12,-154.06 -154.06,-154.06 -84.94,0 -154.06,69.12 -154.06,154.06 0,84.94 69.12,154.06 154.06,154.06zm0 -205.41c28.3,0 51.35,23.06 51.35,51.35 0,28.3 -23.06,51.35 -51.35,51.35 -28.3,0 -51.35,-23.06 -51.35,-51.35 0,-28.3 23.06,-51.35 51.35,-51.35z"/>
  </g>
 </g>
</svg>
