<?xml version="1.0" encoding="UTF-8"?>
<!DOCTYPE svg PUBLIC "-//W3C//DTD SVG 1.1//EN" "http://www.w3.org/Graphics/SVG/1.1/DTD/svg11.dtd">
<!-- Creator: CorelDRAW 2020 (64-Bit) -->
<svg xmlns="http://www.w3.org/2000/svg" xml:space="preserve" width="160.449mm" height="219.935mm" version="1.1" style="shape-rendering:geometricPrecision; text-rendering:geometricPrecision; image-rendering:optimizeQuality; fill-rule:evenodd; clip-rule:evenodd"
viewBox="0 0 902.11 1236.56"
 xmlns:xlink="http://www.w3.org/1999/xlink"
 xmlns:xodm="http://www.corel.com/coreldraw/odm/2003">
 <defs>
  <style type="text/css">
   <![CDATA[
    .fil0 {fill:#51CF4D}
    .fil1 {fill:black;fill-rule:nonzero}
   ]]>
  </style>
 </defs>
 <g id="Слой_x0020_1">
  <metadata id="CorelCorpID_0Corel-Layer"/>
  <circle class="fil0" cx="451.05" cy="451.05" r="202.45"/>
  <path class="fil1" d="M879.48 387.89l-58.06 -70.44c-7.97,-9.67 -12.82,-21.37 -14.01,-33.83l-8.75 -90.86c-4.55,-47.21 -42.11,-84.77 -89.32,-89.32l-90.86 -8.75c-12.46,-1.2 -24.16,-6.05 -33.83,-14.01l-70.44 -58.07c-36.6,-30.16 -89.72,-30.16 -126.31,0l-70.44 58.07c-9.66,7.96 -21.36,12.81 -33.83,14.01l-90.86 8.75c-47.21,4.55 -84.77,42.11 -89.32,89.32l-8.75 90.86c-1.2,12.46 -6.05,24.16 -14.01,33.83l-58.07 70.44c-30.16,36.6 -30.16,89.72 0,126.31l58.07 70.44c7.96,9.67 12.81,21.37 14.01,33.83l8.75 90.86c4.55,47.21 42.11,84.77 89.32,89.32l55.54 5.35 -131.96 315.32c-3.58,8.58 -1.96,18.25 4.22,25.21 6.18,6.95 15.57,9.71 24.49,7.17l114.48 -32.32c0.5,-0.14 0.98,0.08 1.21,0.48l57.33 104.25c4.26,7.76 12.24,12.44 21.01,12.44 0.41,0 0.83,-0.01 1.25,-0.03 9.27,-0.47 17.29,-6.08 20.96,-14.72l139.31 -332.93c4.73,-2.72 9.27,-5.84 13.59,-9.4l70.44 -58.06c8.91,-7.36 19.59,-12.01 30.97,-13.63l126.18 301.51 -89.29 -25.21c-16.98,-4.78 -34.76,2.66 -43.28,18.1l-44.71 81.29 -59.24 -141.56c-3.92,-9.35 -14.65,-13.75 -24,-9.84 -9.34,3.91 -13.75,14.65 -9.83,23.99l69.39 165.82c3.63,8.55 11.64,14.15 20.93,14.62 0.42,0.02 0.84,0.04 1.25,0.04 8.77,0 16.75,-4.69 21.01,-12.45l57.32 -104.23c0.24,-0.42 0.73,-0.62 1.21,-0.5l114.46 32.32c8.94,2.53 18.34,-0.22 24.51,-7.17 6.18,-6.96 7.79,-16.61 4.21,-25.23l-131.95 -315.31 55.54 -5.35c47.21,-4.55 84.78,-42.1 89.32,-89.31l8.76 -90.87c1.19,-12.46 6.04,-24.15 14.01,-33.82l58.06 -70.44c30.17,-36.6 30.17,-89.72 0,-126.31l-0 0zm-541.89 795.59l-44.72 -81.31c-8.51,-15.43 -26.31,-22.88 -43.28,-18.08l-89.28 25.2 126.17 -301.5c11.4,1.62 22.07,6.27 30.98,13.62l70.44 58.07c18.3,15.09 40.73,22.62 63.16,22.62 1.44,0 2.88,-0.04 4.32,-0.1l-117.79 281.49zm513.59 -692.6l-58.06 70.44c-12.64,15.32 -20.32,33.87 -22.23,53.63l-8.75 90.86c-2.87,29.77 -26.56,53.46 -56.33,56.33l-79.81 7.69c-0.31,0.02 -0.63,0.05 -0.94,0.09l-10.1 0.97c-19.77,1.91 -38.32,9.59 -53.64,22.22l-70.44 58.06c-23.08,19.03 -56.59,19.03 -79.66,0l-70.44 -58.06c-15.32,-12.63 -33.87,-20.32 -53.64,-22.22l-10.15 -0.98c-0.28,-0.04 -0.56,-0.06 -0.84,-0.08l-79.87 -7.7c-29.77,-2.87 -53.46,-26.56 -56.33,-56.33l-8.75 -90.85c-1.91,-19.77 -9.59,-38.32 -22.23,-53.64l-58.06 -70.44c-19.03,-23.08 -19.03,-56.6 0,-79.67l58.06 -70.44c12.64,-15.32 20.32,-33.87 22.23,-53.64l8.75 -90.86c2.87,-29.77 26.56,-53.46 56.33,-56.33l90.86 -8.75c19.77,-1.91 38.32,-9.59 53.64,-22.22l70.44 -58.06c11.54,-9.51 25.69,-14.27 39.83,-14.27 14.14,0 28.29,4.75 39.83,14.27l70.44 58.06c15.32,12.63 33.87,20.32 53.64,22.22l90.86 8.75c29.77,2.87 53.46,26.56 56.33,56.33l8.75 90.86c1.91,19.77 9.59,38.32 22.23,53.64l58.06 70.44c19.02,23.08 19.02,56.59 0,79.67zm0 0z"/>
  <path class="fil1" d="M451.05 164.6c-12.25,0 -24.57,0.77 -36.64,2.32 -10.04,1.28 -17.14,10.47 -15.86,20.51 1.28,10.05 10.48,17.14 20.51,15.87 10.53,-1.35 21.29,-2.03 31.99,-2.03 137.73,0 249.78,112.05 249.78,249.78 0,137.73 -112.06,249.77 -249.78,249.77 -137.73,0 -249.78,-112.05 -249.78,-249.78 0,-98.24 57.93,-187.72 147.57,-227.98 9.24,-4.14 13.37,-15 9.22,-24.24 -4.15,-9.25 -15.01,-13.37 -24.24,-9.22 -102.8,46.16 -169.22,148.78 -169.22,261.43 0,157.96 128.5,286.45 286.45,286.45 157.95,0 286.45,-128.49 286.45,-286.45 0,-157.95 -128.5,-286.44 -286.45,-286.44l0 0zm0 0z"/>
  <path class="fil1" d="M268.95 429.81c-21.86,21.86 -21.86,57.43 0,79.29l80.09 80.1c10.59,10.59 24.67,16.42 39.65,16.42 14.97,0 29.06,-5.83 39.65,-16.42l174.82 -174.83c21.86,-21.87 21.86,-57.44 0,-79.3 -21.86,-21.86 -57.43,-21.86 -79.3,0l-135.17 135.18 -40.44 -40.43c-21.86,-21.86 -57.43,-21.86 -79.29,0l-0 -0zm119.74 84.71c4.86,0 9.52,-1.93 12.96,-5.38l148.14 -148.14c7.57,-7.57 19.87,-7.56 27.43,0 7.57,7.57 7.57,19.88 0,27.43l-174.82 174.83c-3.66,3.66 -8.54,5.68 -13.72,5.68 -5.19,0 -10.06,-2.02 -13.72,-5.68l-80.1 -80.09c-7.56,-7.57 -7.56,-19.88 0,-27.43 3.78,-3.78 8.75,-5.68 13.73,-5.68 4.96,0 9.93,1.9 13.71,5.67l53.41 53.41c3.44,3.44 8.1,5.38 12.97,5.38l0 0zm0 0z"/>
 </g>
</svg>
