<?xml version="1.0" encoding="UTF-8"?>
<!DOCTYPE svg PUBLIC "-//W3C//DTD SVG 1.1//EN" "http://www.w3.org/Graphics/SVG/1.1/DTD/svg11.dtd">
<!-- Creator: CorelDRAW 2020 (64-Bit) -->
<svg xmlns="http://www.w3.org/2000/svg" xml:space="preserve" width="127.459mm" height="95.0563mm" version="1.1" style="shape-rendering:geometricPrecision; text-rendering:geometricPrecision; image-rendering:optimizeQuality; fill-rule:evenodd; clip-rule:evenodd"
viewBox="0 0 1108.67 826.82"
 xmlns:xlink="http://www.w3.org/1999/xlink"
 xmlns:xodm="http://www.corel.com/coreldraw/odm/2003">
 <defs>
  <style type="text/css">
   <![CDATA[
    .fil0 {fill:#51CF4D}
    .fil1 {fill:black;fill-rule:nonzero}
   ]]>
  </style>
 </defs>
 <g id="Слой_x0020_1">
  <metadata id="CorelCorpID_0Corel-Layer"/>
  <ellipse class="fil0" cx="372.39" cy="281.26" rx="240.09" ry="176.33"/>
  <g id="surface1">
   <path class="fil1" d="M379.88 402.16c91.8,0 166.66,-56.37 166.66,-125.43 0,-69.07 -74.64,-125.44 -166.66,-125.44 -92.02,0 -166.66,56.37 -166.66,125.44 0,69.06 74.86,125.43 166.66,125.43zm0 -206.32c66.84,0 122.1,36.99 122.1,80.88 0,43.9 -55.93,80.88 -122.1,80.88 -66.18,0 -122.1,-36.98 -122.1,-80.88 0,-43.89 55.93,-81.1 122.1,-81.1l0 0.22zm0 0z"/>
   <path class="fil1" d="M1086.39 508.44l-328.86 0 0 -231.95c0,-152.39 -169.55,-276.49 -378.76,-276.49 -209.22,0 -378.77,124.1 -378.77,276.49l0 274.05c0,140.36 143.71,256.22 328.86,273.82l3.79 0c15.37,1.34 30.97,2.46 46.79,2.46l706.95 0c12.3,0 22.28,-9.98 22.28,-22.28l0 -273.83c0,-12.29 -9.98,-22.27 -22.28,-22.27zm-706.51 -463.66c183.81,0 334.21,104.05 334.21,231.94 0,127.89 -149.5,231.94 -334.21,231.94 -184.7,0 -334.21,-104.05 -334.21,-231.95 0,-127.89 150.61,-231.94 334.21,-231.94zm334.21 361.84l0 101.82 -129.23 0c50.44,-22.86 94.45,-57.84 128.11,-101.82l1.12 0zm350.02 375.65l-44.56 0 0 -112.74c0,-12.29 -9.98,-22.28 -22.27,-22.28 -12.3,0 -22.28,9.98 -22.28,22.28l0 112.96 -89.13 0 0 -61.27c0,-12.3 -9.98,-22.28 -22.28,-22.28 -12.3,0 -22.28,9.98 -22.28,22.28l0 61.27 -89.12 0 0 -61.27c0,-12.3 -9.98,-22.28 -22.28,-22.28 -12.3,0 -22.28,9.98 -22.28,22.28l0 61.27 -89.13 0 0 -112.96c0,-12.29 -9.98,-22.28 -22.28,-22.28 -12.29,0 -22.28,9.98 -22.28,22.28l0 112.96 -85.33 0 0 -61.27c0,-12.3 -9.99,-22.28 -22.28,-22.28 -12.3,0 -22.28,9.98 -22.28,22.28l0 61.27 -64.17 0c-8.46,0 -16.7,0 -24.95,0l0 -61.27c0,-12.3 -9.98,-22.28 -22.28,-22.28 -12.3,0 -22.28,9.98 -22.28,22.28l0 55.93c-150.38,-22.28 -263.56,-115.41 -263.56,-226.81l0 -143.71c63.72,87.12 189.16,146.38 334.21,146.38l683.11 0 0 229.27zm0 0z"/>
  </g>
  <rect class="fil0" x="516.45" y="593.57" width="20.04" height="188.91"/>
  <rect class="fil0" x="650.65" y="594.95" width="15.65" height="187.53"/>
  <rect class="fil0" x="787.82" y="601.85" width="17.49" height="180.63"/>
  <rect class="fil0" x="919" y="607.38" width="19.79" height="175.11"/>
 </g>
</svg>
