<?xml version="1.0" encoding="UTF-8"?>
<!DOCTYPE svg PUBLIC "-//W3C//DTD SVG 1.1//EN" "http://www.w3.org/Graphics/SVG/1.1/DTD/svg11.dtd">
<!-- Creator: CorelDRAW 2020 (64-Bit) -->
<svg xmlns="http://www.w3.org/2000/svg" xml:space="preserve" width="133.704mm" height="116.265mm" version="1.1" style="shape-rendering:geometricPrecision; text-rendering:geometricPrecision; image-rendering:optimizeQuality; fill-rule:evenodd; clip-rule:evenodd"
viewBox="0 0 1590.76 1383.27"
 xmlns:xlink="http://www.w3.org/1999/xlink"
 xmlns:xodm="http://www.corel.com/coreldraw/odm/2003">
 <defs>
  <style type="text/css">
   <![CDATA[
    .fil1 {fill:black}
    .fil0 {fill:#51CF4D}
   ]]>
  </style>
 </defs>
 <g id="Слой_x0020_1">
  <metadata id="CorelCorpID_0Corel-Layer"/>
  <path class="fil0" d="M113.63 388.11l1129.51 0c-261.61,87.45 -459.89,227.68 -562.27,447.82l-567.24 0 0 -447.82z"/>
  <g id="_3025458174528">
   <path class="fil1" d="M-0 163.03c0,-89.34 71.1,-163.03 160.33,-163.03l1131.77 -0c89.24,0 160.34,73.69 160.34,163.03l0 355.7c0,19.1 -15.49,34.58 -34.58,34.58 -19.1,0 -34.58,-15.49 -34.58,-34.58l0 -355.7c0,-52.54 -41.5,-93.86 -91.17,-93.86l-1131.77 0c-49.66,0 -91.17,41.33 -91.17,93.86l0 642.24c0,52.53 41.51,93.86 91.17,93.86l496.72 -0c19.1,0 34.58,15.49 34.58,34.58 0,19.1 -15.49,34.58 -34.58,34.58l-496.72 0c-89.24,0 -160.33,-73.69 -160.33,-163.02l0 -642.24z"/>
   <path class="fil1" d="M-0 242.07c0,-19.1 15.48,-34.58 34.58,-34.58l1383.27 0c19.1,0 34.58,15.48 34.58,34.58 0,19.1 -15.49,34.58 -34.58,34.58l-1383.27 0c-19.1,0 -34.58,-15.48 -34.58,-34.58z"/>
   <path class="fil1" d="M138.33 587.89c0,-19.1 15.48,-34.58 34.58,-34.58l138.33 0c19.1,0 34.58,15.49 34.58,34.58 0,19.1 -15.48,34.58 -34.58,34.58l-138.33 0c-19.1,0 -34.58,-15.49 -34.58,-34.58z"/>
   <path class="fil1" d="M138.33 760.8c0,-19.1 15.48,-34.58 34.58,-34.58l276.65 0c19.1,0 34.58,15.49 34.58,34.58 0,19.1 -15.48,34.58 -34.58,34.58l-276.65 0c-19.1,0 -34.58,-15.49 -34.58,-34.58z"/>
   <path class="fil1" d="M1210.36 691.64c-171.89,0 -311.24,139.34 -311.24,311.24 0,171.89 139.34,311.24 311.24,311.24 171.89,0 311.24,-139.34 311.24,-311.24 0,-171.89 -139.34,-311.24 -311.24,-311.24zm-380.4 311.24c0,-210.09 170.31,-380.4 380.4,-380.4 210.09,0 380.4,170.31 380.4,380.4 0,210.09 -170.31,380.4 -380.4,380.4 -210.09,0 -380.4,-170.31 -380.4,-380.4z"/>
   <path class="fil1" d="M1324.23 943.83c13.51,-13.5 35.4,-13.5 48.91,0 13.5,13.51 13.5,35.4 0,48.91l-138.33 138.33c-13.51,13.5 -35.4,13.5 -48.91,0l-103.75 -103.75c-13.5,-13.51 -13.5,-35.4 0,-48.91 13.51,-13.5 35.4,-13.5 48.91,0l79.29 79.3 113.87 -113.88z"/>
  </g>
 </g>
</svg>
