<?xml version="1.0" encoding="UTF-8"?>
<!DOCTYPE svg PUBLIC "-//W3C//DTD SVG 1.1//EN" "http://www.w3.org/Graphics/SVG/1.1/DTD/svg11.dtd">
<!-- Creator: CorelDRAW 2020 (64-Bit) -->
<svg xmlns="http://www.w3.org/2000/svg" xml:space="preserve" width="117.017mm" height="87.7629mm" version="1.1" style="shape-rendering:geometricPrecision; text-rendering:geometricPrecision; image-rendering:optimizeQuality; fill-rule:evenodd; clip-rule:evenodd"
viewBox="0 0 682.07 511.55"
 xmlns:xlink="http://www.w3.org/1999/xlink"
 xmlns:xodm="http://www.corel.com/coreldraw/odm/2003">
 <defs>
  <style type="text/css">
   <![CDATA[
    .fil0 {fill:#51CF4D}
    .fil1 {fill:black;fill-rule:nonzero}
   ]]>
  </style>
 </defs>
 <g id="Слой_x0020_1">
  <metadata id="CorelCorpID_0Corel-Layer"/>
  <rect class="fil0" x="382.89" y="73.3" width="226.17" height="362.73"/>
  <g id="_3025450634496">
   <path class="fil1" d="M611.02 511.55l-539.97 0c-39.16,0 -71.05,-31.89 -71.05,-71.05l0 -369.46c0,-39.16 31.89,-71.05 71.05,-71.05l539.97 0c39.16,0 71.05,31.89 71.05,71.05l0 369.46c0,39.16 -31.89,71.05 -71.05,71.05zm-539.97 -483.13c-23.5,0 -42.63,19.13 -42.63,42.63l0 369.46c0,23.5 19.13,42.63 42.63,42.63l539.97 0c23.5,0 42.63,-19.13 42.63,-42.63l0 -369.46c0,-23.5 -19.13,-42.63 -42.63,-42.63l-539.97 0z"/>
  </g>
  <g id="_3025450636464">
   <path class="fil1" d="M213.15 255.78c-39.16,0 -71.05,-31.89 -71.05,-71.05 0,-39.16 31.89,-71.05 71.05,-71.05 39.16,0 71.05,31.89 71.05,71.05 0,39.16 -31.89,71.05 -71.05,71.05zm0 -113.68c-23.5,0 -42.63,19.13 -42.63,42.63 0,23.5 19.13,42.63 42.63,42.63 23.5,0 42.63,-19.13 42.63,-42.63 0,-23.5 -19.13,-42.63 -42.63,-42.63z"/>
  </g>
  <g id="_3025450635984">
   <path class="fil1" d="M326.83 397.87c-7.84,0 -14.21,-6.37 -14.21,-14.21l0 -28.42c0,-23.5 -19.13,-42.63 -42.63,-42.63l-113.68 0c-23.5,0 -42.63,19.13 -42.63,42.63l0 28.42c0,7.84 -6.37,14.21 -14.21,14.21 -7.84,0 -14.21,-6.37 -14.21,-14.21l0 -28.42c0,-39.16 31.89,-71.05 71.05,-71.05l113.68 -0c39.16,0 71.05,31.89 71.05,71.05l0 28.42c0,7.84 -6.37,14.21 -14.21,14.21l0 0z"/>
  </g>
  <g id="_3025450640784">
   <path class="fil1" d="M582.6 170.52l-170.52 0c-7.84,0 -14.21,-6.37 -14.21,-14.21 0,-7.84 6.37,-14.21 14.21,-14.21l170.52 -0c7.84,0 14.21,6.37 14.21,14.21 0,7.84 -6.37,14.21 -14.21,14.21l0 0z"/>
  </g>
  <g id="_3025450638576">
   <path class="fil1" d="M582.6 284.2l-170.52 0c-7.84,0 -14.21,-6.37 -14.21,-14.21 0,-7.84 6.37,-14.21 14.21,-14.21l170.52 0c7.84,0 14.21,6.37 14.21,14.21 0,7.84 -6.37,14.21 -14.21,14.21z"/>
  </g>
  <g id="_3025450612032">
   <path class="fil1" d="M582.6 397.87l-170.52 0c-7.84,0 -14.21,-6.37 -14.21,-14.21 0,-7.84 6.37,-14.21 14.21,-14.21l170.52 0c7.84,0 14.21,6.37 14.21,14.21 0,7.84 -6.37,14.21 -14.21,14.21z"/>
  </g>
 </g>
</svg>
