<?xml version="1.0" encoding="UTF-8"?>
<!DOCTYPE svg PUBLIC "-//W3C//DTD SVG 1.1//EN" "http://www.w3.org/Graphics/SVG/1.1/DTD/svg11.dtd">
<!-- Creator: CorelDRAW 2020 (64-Bit) -->
<svg xmlns="http://www.w3.org/2000/svg" xml:space="preserve" width="106.608mm" height="78.7974mm" version="1.1" style="shape-rendering:geometricPrecision; text-rendering:geometricPrecision; image-rendering:optimizeQuality; fill-rule:evenodd; clip-rule:evenodd"
viewBox="0 0 654.51 483.77"
 xmlns:xlink="http://www.w3.org/1999/xlink"
 xmlns:xodm="http://www.corel.com/coreldraw/odm/2003">
 <defs>
  <style type="text/css">
   <![CDATA[
    .str0 {stroke:#2B2A29;stroke-width:1.23;stroke-miterlimit:22.9256}
    .fil1 {fill:#51CF4D}
    .fil0 {fill:black;fill-rule:nonzero}
   ]]>
  </style>
 </defs>
 <g id="Слой_x0020_1">
  <metadata id="CorelCorpID_0Corel-Layer"/>
  <g id="_3025452456400">
   <g>
    <path class="fil0" d="M583.36 113.83l-512.22 0c-7.85,0 -14.23,6.38 -14.23,14.23l0 85.37c0,149.06 121.28,270.34 270.34,270.34 149.06,0 270.34,-121.28 270.34,-270.34l0 -85.37c0,-7.85 -6.38,-14.23 -14.23,-14.23zm-14.23 99.6c0,133.38 -108.51,241.88 -241.88,241.88 -133.38,0 -241.88,-108.51 -241.88,-241.88l0 -71.14 483.77 0 0 71.14z"/>
   </g>
  </g>
  <g id="_3025452431872">
   <g>
    <path class="fil0" d="M327.25 170.74c-70.6,0 -128.06,57.45 -128.06,128.06 0,70.6 57.45,128.06 128.06,128.06 70.6,0 128.06,-57.45 128.06,-128.06 0,-70.6 -57.45,-128.06 -128.06,-128.06zm0 227.65c-54.92,0 -99.6,-44.68 -99.6,-99.6 0,-54.92 44.68,-99.6 99.6,-99.6 54.92,0 99.6,44.68 99.6,99.6 0,54.92 -44.68,99.6 -99.6,99.6z"/>
   </g>
  </g>
  <g id="_3025452431920">
   <g>
    <path class="fil0" d="M327.25 227.65c-39.24,0 -71.14,31.93 -71.14,71.14 0,39.21 31.9,71.14 71.14,71.14 39.24,0 71.14,-31.93 71.14,-71.14 0,-39.21 -31.9,-71.14 -71.14,-71.14zm0 113.83c-23.53,0 -42.69,-19.15 -42.69,-42.69 0,-23.53 19.15,-42.69 42.69,-42.69 23.53,0 42.69,19.15 42.69,42.69 0,23.53 -19.15,42.69 -42.69,42.69z"/>
   </g>
  </g>
  <g id="_3025452432448">
   <g>
    <path class="fil0" d="M640.28 -0l-626.05 0c-7.85,0 -14.23,6.38 -14.23,14.23l0 85.37c0,23.53 19.15,42.69 42.69,42.69l569.14 0c23.53,0 42.68,-19.15 42.68,-42.69l0 -85.37c0,-7.85 -6.37,-14.23 -14.23,-14.23zm-14.23 99.6c0,7.85 -6.4,14.23 -14.23,14.23l-569.14 0c-7.83,0 -14.23,-6.37 -14.23,-14.23l0 -71.14 597.59 0 0 71.14z"/>
   </g>
  </g>
  <g id="_3025452432928">
   <g>
    <circle class="fil0" cx="497.99" cy="213.43" r="14.23"/>
   </g>
  </g>
  <circle class="fil1 str0" cx="327.25" cy="298.8" r="50.28"/>
  <rect class="fil1" x="62.42" y="28.46" width="514.6" height="55.06"/>
 </g>
</svg>
