<?xml version="1.0" encoding="UTF-8"?>
<!DOCTYPE svg PUBLIC "-//W3C//DTD SVG 1.1//EN" "http://www.w3.org/Graphics/SVG/1.1/DTD/svg11.dtd">
<!-- Creator: CorelDRAW 2020 (64-Bit) -->
<svg xmlns="http://www.w3.org/2000/svg" xml:space="preserve" width="93.8433mm" height="122.544mm" version="1.1" style="shape-rendering:geometricPrecision; text-rendering:geometricPrecision; image-rendering:optimizeQuality; fill-rule:evenodd; clip-rule:evenodd"
viewBox="0 0 589.74 770.1"
 xmlns:xlink="http://www.w3.org/1999/xlink"
 xmlns:xodm="http://www.corel.com/coreldraw/odm/2003">
 <defs>
  <style type="text/css">
   <![CDATA[
    .fil1 {fill:#2B2A29}
    .fil0 {fill:#51CF4D}
   ]]>
  </style>
 </defs>
 <g id="Слой_x0020_1">
  <metadata id="CorelCorpID_0Corel-Layer"/>
  <rect class="fil0" x="26.9" y="433.1" width="298.67" height="268.69"/>
  <circle class="fil0" cx="427.99" cy="617.99" r="39.36"/>
  <circle class="fil0" cx="294.9" cy="198.28" r="51.47"/>
  <path class="fil1" d="M530.03 0l-470.32 0c-32.92,0 -59.71,26.79 -59.71,59.71l0 650.69c0,32.92 26.79,59.71 59.71,59.71l470.32 0c32.92,0 59.71,-26.79 59.71,-59.71l0 -650.69c0,-32.92 -26.79,-59.71 -59.71,-59.71zm32.81 710.39c0,18.09 -14.71,32.81 -32.81,32.81l-470.32 0c-18.09,0 -32.81,-14.71 -32.81,-32.81l0 -650.69c0,-18.09 14.71,-32.81 32.81,-32.81l470.32 0c18.09,0 32.81,14.71 32.81,32.81l0 650.69zm-136.46 -152.22c-32.92,0 -59.71,26.79 -59.71,59.71 0,32.92 26.79,59.71 59.71,59.71 32.92,0 59.71,-26.79 59.71,-59.71 0,-32.92 -26.79,-59.71 -59.71,-59.71zm0 92.51c-18.09,0 -32.81,-14.71 -32.81,-32.81 0,-18.09 14.71,-32.81 32.81,-32.81 18.09,0 32.81,14.71 32.81,32.81 0,18.09 -14.71,32.81 -32.81,32.81zm-135.38 0c-7.43,0 -13.45,6.02 -13.45,13.45 0,7.43 6.02,13.45 13.45,13.45 7.43,0 13.45,-6.02 13.45,-13.45 0,-7.43 -6.02,-13.45 -13.45,-13.45zm0 -92.51c-7.43,0 -13.45,6.02 -13.45,13.45 0,7.43 6.02,13.45 13.45,13.45 7.43,0 13.45,-6.02 13.45,-13.45 0,-7.43 -6.02,-13.45 -13.45,-13.45zm179.84 -92.52c-7.43,0 -13.45,6.02 -13.45,13.45 0,7.43 6.02,13.45 13.45,13.45 7.43,0 13.45,-6.02 13.45,-13.45 0,-7.43 -6.02,-13.45 -13.45,-13.45zm-364.87 185.03c-7.43,0 -13.45,6.02 -13.45,13.45 0,7.43 6.02,13.45 13.45,13.45 7.43,0 13.45,-6.02 13.45,-13.45 0,-7.43 -6.02,-13.45 -13.45,-13.45zm105.97 13.45c0,-7.43 -6.02,-13.45 -13.45,-13.45 -7.43,0 -13.45,6.02 -13.45,13.45 0,7.43 6.02,13.45 13.45,13.45 7.43,0 13.45,-6.02 13.45,-13.45zm0 -92.52c0,-7.43 -6.02,-13.45 -13.45,-13.45 -7.43,0 -13.45,6.02 -13.45,13.45 0,7.43 6.02,13.45 13.45,13.45 7.43,0 13.45,-6.02 13.45,-13.45zm-105.97 -13.45c-7.43,0 -13.45,6.02 -13.45,13.45 0,7.43 6.02,13.45 13.45,13.45 7.43,0 13.45,-6.02 13.45,-13.45 0,-7.43 -6.02,-13.45 -13.45,-13.45zm0 -92.52c-7.43,0 -13.45,6.02 -13.45,13.45 0,7.43 6.02,13.45 13.45,13.45 7.43,0 13.45,-6.02 13.45,-13.45 0,-7.43 -6.02,-13.45 -13.45,-13.45zm105.97 13.45c0,-7.43 -6.02,-13.45 -13.45,-13.45 -7.43,0 -13.45,6.02 -13.45,13.45 0,7.43 6.02,13.45 13.45,13.45 7.43,0 13.45,-6.02 13.45,-13.45zm79.06 -13.45c-7.43,0 -13.45,6.02 -13.45,13.45 0,7.43 6.02,13.45 13.45,13.45 7.43,0 13.45,-6.02 13.45,-13.45 0,-7.43 -6.02,-13.45 -13.45,-13.45zm79.06 13.45c0,7.43 6.02,13.45 13.45,13.45 7.43,0 13.45,-6.02 13.45,-13.45 0,-7.43 -6.02,-13.45 -13.45,-13.45 -7.43,0 -13.45,6.02 -13.45,13.45zm99.39 -105.97l-363.48 0c-7.43,0 -13.45,6.02 -13.45,13.45 0,7.43 6.02,13.45 13.45,13.45l363.48 0c7.43,0 13.45,-6.02 13.45,-13.45 0,-7.43 -6.02,-13.45 -13.45,-13.45zm-174.58 -280.63c-58.42,0 -105.97,47.54 -105.97,105.97 0,58.42 47.54,105.97 105.97,105.97 58.42,0 105.97,-47.54 105.97,-105.97 0,-58.42 -47.54,-105.97 -105.97,-105.97zm0 185.03c-43.6,0 -79.06,-35.46 -79.06,-79.06 0,-43.6 35.46,-79.06 79.06,-79.06 43.6,0 79.06,35.46 79.06,79.06 0,43.6 -35.46,79.06 -79.06,79.06zm-13.45 -79.06c0,7.43 6.02,13.45 13.45,13.45 7.43,0 13.45,-6.02 13.45,-13.45 0,-7.43 -6.02,-13.45 -13.45,-13.45 -7.43,0 -13.45,6.02 -13.45,13.45z"/>
 </g>
</svg>
