<?xml version="1.0" encoding="UTF-8"?>
<!DOCTYPE svg PUBLIC "-//W3C//DTD SVG 1.1//EN" "http://www.w3.org/Graphics/SVG/1.1/DTD/svg11.dtd">
<!-- Creator: CorelDRAW 2020 (64-Bit) -->
<svg xmlns="http://www.w3.org/2000/svg" xml:space="preserve" width="210mm" height="209.893mm" version="1.1" style="shape-rendering:geometricPrecision; text-rendering:geometricPrecision; image-rendering:optimizeQuality; fill-rule:evenodd; clip-rule:evenodd"
viewBox="0 0 8906.39 8901.83"
 xmlns:xlink="http://www.w3.org/1999/xlink"
 xmlns:xodm="http://www.corel.com/coreldraw/odm/2003">
 <defs>
  <style type="text/css">
   <![CDATA[
    .fil0 {fill:#51CF4D}
    .fil1 {fill:black;fill-rule:nonzero}
   ]]>
  </style>
 </defs>
 <g id="Слой_x0020_1">
  <metadata id="CorelCorpID_0Corel-Layer"/>
  <g id="_3025157077168">
   <circle class="fil0" cx="4453.19" cy="4450.92" r="2799.57"/>
   <path class="fil1" d="M8840.71 4330.49l-740.35 -459.79 563.05 -665.47c31.17,-36.74 41.05,-87.12 26.16,-132.9 -14.89,-45.78 -52.46,-80.71 -99.22,-92.13l-846.66 -207.63 328.7 -807.42c18.09,-44.53 11.97,-95.46 -16.42,-134.29 -28.39,-38.97 -74.73,-60.67 -122.74,-56.92l-869.21 64.16 64.16 -869.21c3.62,-48.01 -17.95,-94.49 -56.92,-122.74 -39.1,-28.39 -89.76,-34.37 -134.29,-16.42l-807.42 328.7 -207.63 -846.66c-11.41,-46.9 -46.34,-84.33 -92.13,-99.22 -46.06,-14.75 -96.02,-5.01 -132.9,26.16l-665.61 562.91 -459.79 -740.34c-50.8,-81.69 -185.64,-81.69 -236.43,0l-459.79 740.35 -665.47 -563.05c-36.88,-31.18 -86.98,-40.92 -133.04,-26.03 -45.78,14.89 -80.71,52.46 -92.13,99.22l-207.63 846.66 -807.42 -328.7c-44.53,-17.95 -95.19,-12.11 -134.29,16.42 -38.97,28.39 -60.53,74.73 -56.92,122.74l64.16 869.21 -869.21 -64.16c-48.15,-3.76 -94.49,17.95 -122.74,56.92 -28.39,38.97 -34.51,89.76 -16.42,134.29l328.7 807.42 -846.66 207.63c-46.9,11.41 -84.33,46.34 -99.22,92.13 -14.89,45.92 -5.01,96.02 26.16,132.9l563.05 665.61 -740.35 459.79c-40.92,25.33 -65.83,70 -65.83,118.15 0,48.15 24.91,92.82 65.69,118.29l740.35 459.79 -563.05 665.47c-31.17,36.74 -41.05,86.98 -26.16,132.9 14.89,45.78 52.33,80.71 99.22,92.13l846.66 207.63 -328.7 807.42c-18.09,44.53 -11.97,95.46 16.42,134.29 28.25,38.83 73.89,60.4 122.74,56.92l869.21 -64.16 -64.16 869.21c-3.62,48.01 17.95,94.49 56.92,122.74 39.1,28.39 89.62,34.51 134.29,16.42l807.42 -328.7 207.63 846.66c11.41,46.76 46.34,84.33 92.13,99.22 46.06,14.89 96.02,5.01 132.9,-26.16l665.61 -563.05 459.79 740.35c25.47,40.77 70.14,65.69 118.29,65.69 48.15,0 92.82,-24.91 118.29,-65.69l459.79 -740.35 665.47 563.05c36.74,31.17 86.98,41.05 132.9,26.16 45.78,-14.89 80.71,-52.33 92.13,-99.22l207.63 -846.66 807.42 328.7c44.67,18.09 95.33,12.11 134.29,-16.42 38.97,-28.39 60.53,-74.73 56.92,-122.74l-64.16 -869.21 869.21 64.16c49.13,4.17 94.49,-17.95 122.74,-56.92 28.39,-38.97 34.51,-89.76 16.42,-134.29l-328.7 -807.42 846.66 -207.63c46.76,-11.55 84.33,-46.34 99.22,-92.13 14.89,-45.92 5.01,-96.02 -26.16,-132.9l-563.05 -665.61 740.35 -459.79c40.91,-25.33 65.82,-70 65.82,-118.15 0,-48.15 -24.91,-92.82 -65.68,-118.29zm-1024.23 544.96c-34.37,21.29 -57.75,56.64 -64.02,96.58 -6.26,39.94 5.15,80.71 31.17,111.61l522 617.18 -785.01 192.46c-39.24,9.6 -72.5,35.91 -90.73,71.95 -18.37,36.04 -20.18,78.21 -5.01,115.78l304.76 748.83 -806.31 -59.56c-41.19,-3.2 -80.02,11.69 -108.69,40.36 -28.67,28.67 -43.28,68.33 -40.36,108.69l59.56 806.31 -748.83 -304.76c-37.57,-15.17 -79.6,-13.5 -115.78,5.01 -36.04,18.37 -62.2,51.49 -71.95,90.73l-192.46 785.01 -617.05 -522.14c-30.89,-26.16 -71.81,-37.85 -111.61,-31.31 -39.94,6.26 -75.29,29.64 -96.58,64.02l-426.39 686.76 -426.67 -687.04c-21.29,-34.37 -56.64,-57.75 -96.58,-64.02 -7.24,-1.12 -14.48,-1.67 -21.71,-1.67 -32.7,0 -64.57,11.55 -89.9,32.84l-617.18 522.14 -192.46 -785.01c-9.6,-39.24 -35.91,-72.5 -71.95,-90.73 -36.04,-18.37 -78.35,-20.18 -115.78,-5.01l-748.83 304.76 59.56 -806.31c2.92,-40.36 -11.69,-80.02 -40.36,-108.69 -28.67,-28.67 -67.77,-43.56 -108.69,-40.36l-806.31 59.56 304.76 -748.83c15.17,-37.44 13.5,-79.74 -5.01,-115.78 -18.37,-36.04 -51.49,-62.2 -90.73,-71.95l-785.01 -192.46 522 -617.05c26.16,-30.89 37.57,-71.67 31.31,-111.61 -6.26,-39.94 -29.64,-75.29 -64.02,-96.58l-687.04 -426.67 687.04 -426.67c34.37,-21.29 57.75,-56.64 64.02,-96.58 6.26,-39.94 -5.15,-80.71 -31.17,-111.61l-522.14 -617.18 785.01 -192.46c39.24,-9.6 72.37,-35.91 90.73,-71.95 18.37,-36.04 20.18,-78.21 5.01,-115.78l-304.76 -748.83 806.31 59.56c40.91,2.92 80.16,-11.69 108.69,-40.36 28.67,-28.67 43.28,-68.33 40.36,-108.69l-59.56 -806.31 748.83 304.76c37.44,15.17 79.6,13.5 115.78,-5.01 36.04,-18.37 62.2,-51.49 71.95,-90.73l192.46 -785.01 617.05 522.14c30.76,26.16 71.53,37.71 111.61,31.31 39.94,-6.26 75.29,-29.64 96.58,-64.02l426.81 -686.62 426.67 687.05c21.29,34.37 56.64,57.75 96.58,64.02 39.94,6.54 80.57,-5.15 111.61,-31.17l617.18 -522 192.46 785.01c9.6,39.24 35.91,72.5 71.95,90.73 36.04,18.37 78.21,20.32 115.64,5.01l748.83 -304.76 -59.56 806.31c-2.92,40.36 11.69,80.02 40.36,108.69 28.67,28.67 67.91,43.7 108.69,40.36l806.31 -59.56 -304.76 748.83c-15.17,37.44 -13.5,79.74 5.01,115.78 18.37,36.04 51.49,62.2 90.73,71.95l785.01 192.46 -522 617.05c-26.16,30.89 -37.57,71.67 -31.31,111.61 6.26,39.94 29.64,75.29 64.02,96.58l686.91 426.67 -687.05 426.38z"/>
   <rect class="fil1" x="1809.11" y="3196.31" width="2226.6" height="278.32"/>
   <rect class="fil1" x="1809.11" y="3752.96" width="2226.6" height="278.32"/>
   <rect class="fil1" x="1809.11" y="4309.61" width="2226.6" height="278.32"/>
   <rect class="fil1" x="1809.11" y="4866.26" width="2226.6" height="278.32"/>
   <rect class="fil1" x="1809.11" y="5422.91" width="2226.6" height="278.32"/>
   <rect class="fil1" transform="matrix(0.6075 -0.7944 0.7944 0.6075 4760.57 5477.52)" width="2978.21" height="278.32"/>
   <path class="fil1" d="M5149.01 4309.61c230.18,0 417.49,-187.31 417.49,-417.49 0,-230.18 -187.31,-417.49 -417.49,-417.49 -230.18,0 -417.49,187.31 -417.49,417.49 0,230.18 187.31,417.49 417.49,417.49zm0 -556.65c76.68,0 139.16,62.48 139.16,139.16 0,76.68 -62.48,139.16 -139.16,139.16 -76.68,0 -139.16,-62.48 -139.16,-139.16 0,-76.68 62.48,-139.16 139.16,-139.16z"/>
   <path class="fil1" d="M6401.47 4587.94c-230.18,0 -417.49,187.31 -417.49,417.49 0,230.18 187.31,417.49 417.49,417.49 230.18,0 417.49,-187.31 417.49,-417.49 0,-230.18 -187.31,-417.49 -417.49,-417.49zm0 556.65c-76.68,0 -139.16,-62.48 -139.16,-139.16 0,-76.68 62.48,-139.16 139.16,-139.16 76.68,0 139.16,62.48 139.16,139.16 0,76.68 -62.48,139.16 -139.16,139.16z"/>
  </g>
 </g>
</svg>
