<?xml version="1.0" encoding="UTF-8"?>
<!DOCTYPE svg PUBLIC "-//W3C//DTD SVG 1.1//EN" "http://www.w3.org/Graphics/SVG/1.1/DTD/svg11.dtd">
<!-- Creator: CorelDRAW 2020 (64-Bit) -->
<svg xmlns="http://www.w3.org/2000/svg" xml:space="preserve" width="247.167mm" height="223.949mm" version="1.1" style="shape-rendering:geometricPrecision; text-rendering:geometricPrecision; image-rendering:optimizeQuality; fill-rule:evenodd; clip-rule:evenodd"
viewBox="0 0 2930.52 2655.23"
 xmlns:xlink="http://www.w3.org/1999/xlink"
 xmlns:xodm="http://www.corel.com/coreldraw/odm/2003">
 <defs>
  <style type="text/css">
   <![CDATA[
    .fil1 {fill:#51CF4D}
    .fil0 {fill:#51CF4D}
    .fil2 {fill:black;fill-rule:nonzero}
   ]]>
  </style>
 </defs>
 <g id="Слой_x0020_1">
  <metadata id="CorelCorpID_0Corel-Layer"/>
  <rect class="fil0" x="260.3" y="1068.55" width="1967.53" height="1174.5"/>
  <circle class="fil1" cx="2382.89" cy="547.63" r="326.37"/>
  <g id="_3025165463568">
   <path class="fil2" d="M2428.78 1192.93c-23.71,0 -42.93,19.22 -42.93,42.93l0 1055.28c0,52.23 -42.49,94.71 -94.71,94.71l-2110.57 0c-52.23,0 -94.71,-42.49 -94.71,-94.71l0 -1379.4 1654.7 0c23.71,0 42.93,-19.22 42.93,-42.93 0,-23.71 -19.22,-42.93 -42.93,-42.93l-1654.7 0 0 -140.6c0,-52.23 42.49,-94.72 94.71,-94.72l48.84 -0 0 2.96c0,74.27 60.43,134.69 134.69,134.69 74.27,0 134.69,-60.43 134.69,-134.69l0 -2.96 1195.87 0c23.71,0 42.93,-19.22 42.93,-42.93 0,-23.71 -19.22,-42.93 -42.93,-42.93l-1195.87 0 0 -48.83c0,-74.27 -60.42,-134.69 -134.69,-134.69 -74.27,0 -134.69,60.43 -134.69,134.69l0 48.83 -48.83 0c-99.58,0 -180.58,81 -180.58,180.57l0 1789.39c0,99.57 81,180.57 180.57,180.57l2110.56 0c99.57,0 180.57,-81 180.57,-180.57l0 -1238.8c0.01,-23.71 -19.21,-42.93 -42.92,-42.93zm-2113.51 -737.07c0,-26.93 21.91,-48.83 48.83,-48.83 26.92,0 48.83,21.91 48.83,48.83l0 137.65c0,26.93 -21.91,48.83 -48.83,48.83 -26.92,0 -48.83,-21.91 -48.83,-48.83l0 -137.65zm1975.87 2113.52l-2110.57 0c-52.23,0 -94.71,-42.49 -94.71,-94.71l0 -29.87c27.55,17.05 60,26.92 94.71,26.92l2110.56 0c34.71,0 67.16,-9.87 94.71,-26.92l0 29.87c0.01,52.22 -42.48,94.71 -94.71,94.71z"/>
   <path class="fil2" d="M2382.9 0c-301.96,0 -547.63,245.66 -547.63,547.62 0,301.96 245.67,547.63 547.63,547.63 301.96,0 547.62,-245.67 547.62,-547.62 0,-301.96 -245.66,-547.63 -547.62,-547.63zm0 1009.4c-254.62,0 -461.78,-207.15 -461.78,-461.78 0,-254.62 207.15,-461.77 461.78,-461.77 254.62,0 461.77,207.15 461.77,461.77 0,254.62 -207.15,461.78 -461.77,461.78z"/>
   <path class="fil2" d="M2384.09 361.15c55.11,0 93.52,30.27 93.52,57.44 0,23.71 19.22,42.93 42.93,42.93 23.71,0 42.93,-19.22 42.93,-42.93 0,-68.83 -57.84,-124.85 -137.64,-139.51l0 -6.74c0,-23.71 -19.22,-42.93 -42.93,-42.93 -23.71,0 -42.93,19.22 -42.93,42.93l0 7.17c-78.57,15.33 -135.24,70.93 -135.24,139.08 0,111.7 103.4,147.92 165.18,169.55 92.16,32.28 107.71,53.4 107.71,88.53 0,27.17 -38.41,57.44 -93.52,57.44 -55.11,0 -93.52,-30.27 -93.52,-57.44 0,-23.71 -19.22,-42.93 -42.93,-42.93 -23.71,0 -42.93,19.22 -42.93,42.93 0,68.15 56.67,123.75 135.24,139.08l0 7.17c0,23.71 19.22,42.93 42.93,42.93 23.71,0 42.93,-19.22 42.93,-42.93l0 -6.74c79.81,-14.66 137.64,-70.68 137.64,-139.51 0,-111.7 -103.4,-147.92 -165.19,-169.56 -92.16,-32.28 -107.71,-53.4 -107.71,-88.52 0.01,-27.17 38.41,-57.44 93.52,-57.44z"/>
   <path class="fil2" d="M409.98 1147.05c-48.97,0 -88.81,39.84 -88.81,88.81l0 825.87c0,48.97 39.84,88.81 88.81,88.81l91.75 0c23.71,0 42.93,-19.22 42.93,-42.93 0,-23.71 -19.22,-42.93 -42.93,-42.93l-91.75 0c-1.63,0 -2.95,-1.32 -2.95,-2.95l0 -209.42 350.04 0 0 212.38 -71.8 -0c-23.71,0 -42.93,19.22 -42.93,42.93 0,23.71 19.22,42.93 42.93,42.93l1376.45 0c48.97,0 88.81,-39.84 88.81,-88.81l0 -825.87c0,-48.97 -39.84,-88.81 -88.81,-88.81l-91.75 0c-23.71,0 -42.93,19.22 -42.93,42.93 0,23.71 19.22,42.93 42.93,42.93l91.75 0c1.63,0 2.95,1.32 2.95,2.95l0 209.42 -350 0 0 -212.38 71.76 0c23.71,0 42.93,-19.22 42.93,-42.93 0,-23.71 -19.22,-42.93 -42.93,-42.93l-1376.46 0zm868.8 619.4l0 -235.32 350.04 0 0 235.32 -350.04 0zm350.04 85.86l0 212.38 -350.04 0 0 -212.38 350.04 0zm-435.9 -85.86l-350 0 0 -235.32 350 0 0 235.32zm-350 -321.17l0 -212.38 350 0 0 212.38 -350 -0zm-432.95 -212.38l347.09 0 0 212.38 -350.04 -0 0 -209.42c0,-1.63 1.32,-2.95 2.95,-2.95zm-2.95 533.54l0 -235.32 350.04 0 0 235.32 -350.04 0zm435.9 85.86l350 0 0 212.38 -350 0 0 -212.38zm1218.79 212.38l-347.04 0 0 -212.38 350 0 0 209.42c0.01,1.63 -1.32,2.95 -2.95,2.95zm2.96 -533.54l0 235.32 -350 0 0 -235.32 350 0zm-435.86 -85.86l-350.04 0 0 -212.38 350.04 0 0 212.38z"/>
  </g>
 </g>
</svg>
