<?xml version="1.0" encoding="UTF-8"?>
<!DOCTYPE svg PUBLIC "-//W3C//DTD SVG 1.1//EN" "http://www.w3.org/Graphics/SVG/1.1/DTD/svg11.dtd">
<!-- Creator: CorelDRAW 2020 (64-Bit) -->
<svg xmlns="http://www.w3.org/2000/svg" xml:space="preserve" width="122.766mm" height="145.565mm" version="1.1" style="shape-rendering:geometricPrecision; text-rendering:geometricPrecision; image-rendering:optimizeQuality; fill-rule:evenodd; clip-rule:evenodd"
viewBox="0 0 826.72 980.26"
 xmlns:xlink="http://www.w3.org/1999/xlink"
 xmlns:xodm="http://www.corel.com/coreldraw/odm/2003">
 <defs>
  <style type="text/css">
   <![CDATA[
    .fil0 {fill:#51CF4D}
    .fil1 {fill:black;fill-rule:nonzero}
   ]]>
  </style>
 </defs>
 <g id="Слой_x0020_1">
  <metadata id="CorelCorpID_0Corel-Layer"/>
  <rect class="fil0" x="229.25" y="249.14" width="477.09" height="480.18"/>
  <path class="fil1" d="M649.58 413.36l-342.5 0c-9.79,0 -17.72,7.92 -17.72,17.71 0,9.79 7.93,17.72 17.72,17.72l342.5 0c9.78,0 17.71,-7.92 17.71,-17.72 0,-9.79 -7.94,-17.71 -17.71,-17.71zm129.9 -283.45l-82.67 0 0 -82.67c0,-25.98 -21.26,-47.24 -47.23,-47.24l-602.34 0c-25.98,0 -47.24,21.26 -47.24,47.24l0 755.86c0,25.98 21.26,47.24 47.24,47.24l82.67 0 0 82.67c0,25.98 21.25,47.24 47.24,47.24l401.54 0c25.97,0 62.72,-14.57 81.63,-32.37l131.97 -124.22c18.93,-17.8 34.4,-53.63 34.4,-79.61l0.02 -566.89c-0,-25.99 -21.26,-47.25 -47.24,-47.25zm-649.57 47.24l0 637.76 -82.67 0c-6.4,0 -11.81,-5.41 -11.81,-11.81l-0 -755.86c0,-6.4 5.41,-11.81 11.81,-11.81l602.34 -0c6.39,0 11.81,5.41 11.81,11.81l0 82.67 -484.23 0c-25.99,0 -47.24,21.26 -47.24,47.24zm638.1 620.71l-131.97 124.21c-2.7,2.54 -6.22,5.03 -10.11,7.4l0 -108.67c0,-8.11 3.27,-15.41 8.67,-20.85 5.45,-5.4 12.74,-8.68 20.86,-8.68l118.16 -0c-1.83,2.49 -3.71,4.78 -5.61,6.58zm23.25 -53.82c0,3.51 -0.64,7.57 -1.61,11.81l-134.2 0c-35.84,0.07 -64.88,29.11 -64.96,64.96l0 122.58c-4.22,0.85 -8.28,1.43 -11.81,1.43l-401.54 -0 0 0c-6.41,0 -11.81,-5.41 -11.81,-11.81l-0 -755.86c0,-6.4 5.4,-11.81 11.81,-11.81l602.33 -0c6.4,0 11.81,5.41 11.81,11.81l-0.02 566.89zm-141.69 -448.79l-342.5 0c-9.79,0 -17.72,7.92 -17.72,17.71 0,9.79 7.93,17.72 17.72,17.72l342.5 0c9.78,0 17.71,-7.92 17.71,-17.72 0,-9.79 -7.94,-17.71 -17.71,-17.71zm0 236.21l-342.5 0c-9.79,0 -17.72,7.92 -17.72,17.72 0,9.79 7.93,17.72 17.72,17.72l342.5 -0c9.78,0 17.71,-7.92 17.71,-17.71 0,-9.79 -7.94,-17.72 -17.71,-17.72zm-153.53 118.1l-188.96 0c-9.79,0 -17.72,7.92 -17.72,17.71 0,9.79 7.92,17.72 17.72,17.72l188.96 0c9.78,0 17.7,-7.92 17.7,-17.72 0,-9.79 -7.92,-17.71 -17.7,-17.71z"/>
 </g>
</svg>
