<?xml version="1.0" encoding="UTF-8"?>
<!DOCTYPE svg PUBLIC "-//W3C//DTD SVG 1.1//EN" "http://www.w3.org/Graphics/SVG/1.1/DTD/svg11.dtd">
<!-- Creator: CorelDRAW 2020 (64-Bit) -->
<svg xmlns="http://www.w3.org/2000/svg" xml:space="preserve" width="155.063mm" height="126.424mm" version="1.1" style="shape-rendering:geometricPrecision; text-rendering:geometricPrecision; image-rendering:optimizeQuality; fill-rule:evenodd; clip-rule:evenodd"
viewBox="0 0 745.76 608.02"
 xmlns:xlink="http://www.w3.org/1999/xlink"
 xmlns:xodm="http://www.corel.com/coreldraw/odm/2003">
 <defs>
  <style type="text/css">
   <![CDATA[
    .fil1 {fill:#2B2A29}
    .fil0 {fill:#51CF4D}
   ]]>
  </style>
 </defs>
 <g id="Слой_x0020_1">
  <metadata id="CorelCorpID_0Corel-Layer"/>
  <polygon class="fil0" points="79.8,99.61 372.87,8.79 635.93,80.45 371.37,522.74 "/>
  <path class="fil1" d="M406.7 572.69c0,-19.52 -15.81,-35.33 -35.33,-35.33 -19.52,0 -35.33,15.81 -35.33,35.33 0,19.52 15.81,35.33 35.33,35.33 19.52,0 35.33,-15.81 35.33,-35.33zm334.86 -411.8c-96.45,-103.48 -227.18,-160.89 -368.69,-160.89 -141.5,0 -272.23,57.41 -368.68,160.89 -5.89,6.32 -5.54,16.24 0.78,22.12 6.32,5.89 16.24,5.54 22.12,-0.78 90.4,-96.99 213.15,-150.93 345.78,-150.93 132.63,0 255.38,53.94 345.77,150.93 2.98,3.2 7.09,4.98 11.46,4.98 3.98,0 7.75,-1.48 10.67,-4.2 6.32,-5.89 6.67,-15.81 0.78,-22.12zm-110.84 125.35c-68.85,-69.37 -159.75,-110.59 -257.84,-110.58 -98.09,0 -189,41.2 -257.84,110.59 -6.09,6.14 -6.06,16.04 0.08,22.14 6.14,6.09 16.04,6.05 22.14,-0.09 62.87,-63.36 145.99,-101.33 235.62,-101.33 89.63,-0 172.74,37.98 235.62,101.33 2.96,2.98 6.91,4.63 11.11,4.63 4.16,0 8.08,-1.61 11.03,-4.54 6.14,-6.09 6.17,-16 0.08,-22.14zm-121.07 125.47c-35.09,-34.77 -87.4,-59.03 -137.07,-59.03l-2.2 0c-49.65,0 -101.96,24.26 -137.05,59.03 -6.14,6.09 -6.19,15.99 -0.1,22.14 2.96,2.99 6.92,4.64 11.12,4.64 4.15,0 8.06,-1.61 11.01,-4.53 29.25,-28.98 73.62,-49.96 115.04,-49.96l2.2 0c41.4,0 85.77,20.98 115.02,49.96 6.14,6.09 16.05,6.04 22.14,-0.1 6.09,-6.15 6.04,-16.05 -0.1,-22.14z"/>
 </g>
</svg>
